<?xml version="1.0" encoding="UTF-8"?>
<!DOCTYPE svg PUBLIC "-//W3C//DTD SVG 1.1//EN" "http://www.w3.org/Graphics/SVG/1.1/DTD/svg11.dtd">
<!-- Creator: CorelDRAW X7 -->
<svg xmlns="http://www.w3.org/2000/svg" xml:space="preserve" width="3.38983in" height="3.38983in" version="1.1" style="shape-rendering:geometricPrecision; text-rendering:geometricPrecision; image-rendering:optimizeQuality; fill-rule:evenodd; clip-rule:evenodd"
viewBox="0 0 3860 3860"
 xmlns:xlink="http://www.w3.org/1999/xlink">
 <defs>
  <style type="text/css">
   <![CDATA[
    .str0 {stroke:#FEFEFE;stroke-width:31.6351}
    .fil5 {fill:none;fill-rule:nonzero}
    .fil8 {fill:#003667}
    .fil0 {fill:#00BA88}
    .fil1 {fill:#33F0BE}
    .fil2 {fill:#8CFFE0}
    .fil3 {fill:#A8CDD3}
    .fil4 {fill:#BCDBDF}
    .fil6 {fill:#FEFEFE;fill-rule:nonzero}
    .fil7 {fill:#185E93;fill-rule:nonzero}
   ]]>
  </style>
    <clipPath id="id0" style="clip-rule:nonzero">
     <path d="M2637 2165c-11,-4 -22,-7 -34,-10 -18,-3 -35,-5 -52,-5 -70,0 -133,28 -179,74 -46,46 -75,109 -75,179 0,70 29,134 75,180 46,46 109,74 179,74 70,0 133,-28 179,-74 46,-46 75,-110 75,-180 0,-23 -4,-47 -10,-69 -2,-5 -3,-10 -5,-15l-83 53c2,10 3,21 3,31 0,44 -18,84 -46,113 -29,29 -69,47 -113,47 -44,0 -84,-18 -113,-47 -28,-29 -46,-69 -46,-113 0,-44 18,-83 46,-112 29,-29 69,-47 113,-47 11,0 22,1 33,3l0 0 53 -82zm273 -419c-48,-26 -98,-47 -149,-62 -68,-20 -139,-30 -210,-30 -207,0 -394,84 -530,220 -135,135 -219,322 -219,529 0,207 84,394 219,530 136,136 323,220 530,220 207,0 394,-84 530,-220 135,-136 219,-323 219,-530 0,-73 -11,-145 -31,-214 -14,-48 -33,-93 -57,-137l-79 50c18,37 34,75 45,114 18,60 28,123 28,187 0,181 -73,345 -192,463 -118,119 -282,192 -463,192 -181,0 -345,-73 -463,-192 -118,-118 -192,-282 -192,-463 0,-180 74,-344 192,-463 118,-118 282,-191 463,-191 63,0 125,8 184,26 42,12 84,29 123,50l52 -79zm-140 215c-24,-12 -48,-22 -73,-30 -48,-14 -97,-22 -146,-22 -136,0 -260,56 -349,145 -90,89 -145,213 -145,349 0,137 55,260 145,350 89,89 213,144 349,144 136,0 260,-55 349,-144 90,-90 145,-213 145,-350 0,-53 -9,-107 -26,-157 -6,-20 -14,-39 -23,-57l-80 50c5,12 10,24 14,37 14,40 21,83 21,127 0,111 -45,211 -117,283 -73,72 -173,117 -283,117 -110,0 -210,-45 -283,-117 -72,-72 -117,-172 -117,-283 0,-110 45,-210 117,-282 73,-73 173,-117 283,-117 40,0 80,6 118,17 17,5 33,12 49,19l52 -79z"/>
    </clipPath>
 </defs>
 <g id="Layer_x0020_1">
  <metadata id="CorelCorpID_0Corel-Layer"/>
  <path class="fil0" d="M1930 0c1067,0 1930,864 1930,1930 0,1067 -863,1930 -1930,1930 -1066,0 -1930,-863 -1930,-1930 0,-1066 864,-1930 1930,-1930z"/>
  <path class="fil1" d="M48 2360l3764 0c29,-126 45,-257 48,-392l-3860 0c3,135 19,266 48,392z"/>
  <path class="fil1" d="M86 1360l2155 0 0 -535 0 -800c-101,-16 -205,-25 -311,-25 -868,0 -1601,572 -1844,1360z"/>
  <path class="fil2" d="M2241 825l0 535 -2155 0c-56,180 -86,372 -86,570 0,13 0,26 0,38l3860 0c0,-12 0,-25 0,-38 0,-961 -701,-1757 -1619,-1905l0 800z"/>
  <path class="fil3" d="M977 841l1516 0c116,0 211,95 211,212l0 660c-41,-7 -84,-11 -128,-11 -393,0 -712,319 -712,712 0,131 35,253 97,359l-984 0c-116,0 -211,-95 -211,-212l0 -1508c0,-117 95,-212 211,-212z"/>
  <path class="fil4" d="M977 841l1516 0c116,0 293,130 211,212l-1727 1720c-82,82 -211,-95 -211,-212l0 -1508c0,-117 95,-212 211,-212z"/>
  <g>
   <path class="fil5 str0" d="M1028 732l1335 0c102,0 195,42 262,109 68,68 109,160 109,263l0 601c-30,-7 -62,-12 -94,-15l0 -586c0,-76 -31,-146 -81,-196 -51,-50 -120,-82 -196,-82l-1335 0c-76,0 -145,32 -196,82 -50,50 -81,120 -81,196l0 1334c0,77 31,146 81,196 51,50 120,82 196,82l914 0c17,33 36,64 58,94l-972 0c-102,0 -195,-42 -262,-109 -68,-67 -110,-160 -110,-263l0 -1334c0,-103 42,-195 110,-263 67,-67 160,-109 262,-109z"/>
   <path id="1" class="fil6" d="M1028 732l1335 0c102,0 195,42 262,109 68,68 109,160 109,263l0 601c-30,-7 -62,-12 -94,-15l0 -586c0,-76 -31,-146 -81,-196 -51,-50 -120,-82 -196,-82l-1335 0c-76,0 -145,32 -196,82 -50,50 -81,120 -81,196l0 1334c0,77 31,146 81,196 51,50 120,82 196,82l914 0c17,33 36,64 58,94l-972 0c-102,0 -195,-42 -262,-109 -68,-67 -110,-160 -110,-263l0 -1334c0,-103 42,-195 110,-263 67,-67 160,-109 262,-109z"/>
  </g>
  <path class="fil7" d="M971 1412c-26,0 -48,-21 -48,-47 0,-26 22,-47 48,-47l254 0 0 -254c0,-26 21,-48 47,-48 26,0 48,22 48,48l0 254 254 0c26,0 47,21 47,47 0,26 -21,47 -47,47l-254 0 0 255c0,26 -22,47 -48,47 -26,0 -47,-21 -47,-47l0 -255 -254 0z"/>
  <path class="fil7" d="M1026 2077c-19,-19 -19,-49 0,-67 18,-19 48,-19 66,0l180 180 180 -180c19,-19 49,-19 67,0 18,18 18,48 0,67l-180 180 180 179c18,19 18,49 0,67 -18,19 -48,19 -67,0l-180 -180 -180 180c-18,19 -48,19 -66,0 -19,-18 -19,-48 0,-67l180 -179 -180 -180z"/>
  <path class="fil7" d="M1830 1412c-26,0 -47,-21 -47,-47 0,-26 21,-47 47,-47l254 0 95 0 254 0c26,0 47,21 47,47 0,26 -21,47 -47,47l-254 0 -95 0 -254 0z"/>
  <g>
   <path class="fil8" d="M2579 2441l421 -420 89 1 243 -242 -125 -33 -32 -131 -244 244 0 93 -411 411c-50,39 -2,123 59,77z"/>
   <path class="fil7" d="M2637 2165c-11,-4 -22,-7 -34,-10 -18,-3 -35,-5 -52,-5 -70,0 -133,28 -179,74 -46,46 -75,109 -75,179 0,70 29,134 75,180 46,46 109,74 179,74 70,0 133,-28 179,-74 46,-46 75,-110 75,-180 0,-23 -4,-47 -10,-69 -2,-5 -3,-10 -5,-15l-83 53c2,10 3,21 3,31 0,44 -18,84 -46,113 -29,29 -69,47 -113,47 -44,0 -84,-18 -113,-47 -28,-29 -46,-69 -46,-113 0,-44 18,-83 46,-112 29,-29 69,-47 113,-47 11,0 22,1 33,3l0 0 53 -82zm273 -419c-48,-26 -98,-47 -149,-62 -68,-20 -139,-30 -210,-30 -207,0 -394,84 -530,220 -135,135 -219,322 -219,529 0,207 84,394 219,530 136,136 323,220 530,220 207,0 394,-84 530,-220 135,-136 219,-323 219,-530 0,-73 -11,-145 -31,-214 -14,-48 -33,-93 -57,-137l-79 50c18,37 34,75 45,114 18,60 28,123 28,187 0,181 -73,345 -192,463 -118,119 -282,192 -463,192 -181,0 -345,-73 -463,-192 -118,-118 -192,-282 -192,-463 0,-180 74,-344 192,-463 118,-118 282,-191 463,-191 63,0 125,8 184,26 42,12 84,29 123,50l52 -79zm-140 215c-24,-12 -48,-22 -73,-30 -48,-14 -97,-22 -146,-22 -136,0 -260,56 -349,145 -90,89 -145,213 -145,349 0,137 55,260 145,350 89,89 213,144 349,144 136,0 260,-55 349,-144 90,-90 145,-213 145,-350 0,-53 -9,-107 -26,-157 -6,-20 -14,-39 -23,-57l-80 50c5,12 10,24 14,37 14,40 21,83 21,127 0,111 -45,211 -117,283 -73,72 -173,117 -283,117 -110,0 -210,-45 -283,-117 -72,-72 -117,-172 -117,-283 0,-110 45,-210 117,-282 73,-73 173,-117 283,-117 40,0 80,6 118,17 17,5 33,12 49,19l52 -79z"/>
   <g style="clip-path:url(#id0)">
    <g id="_485065376">
     <ellipse class="fil8" cx="2885" cy="3310" rx="1074" ry="793"/>
    </g>
   </g>
   <path class="fil5" d="M2637 2165c-11,-4 -22,-7 -34,-10 -18,-3 -35,-5 -52,-5 -70,0 -133,28 -179,74 -46,46 -75,109 -75,179 0,70 29,134 75,180 46,46 109,74 179,74 70,0 133,-28 179,-74 46,-46 75,-110 75,-180 0,-23 -4,-47 -10,-69 -2,-5 -3,-10 -5,-15l-83 53c2,10 3,21 3,31 0,44 -18,84 -46,113 -29,29 -69,47 -113,47 -44,0 -84,-18 -113,-47 -28,-29 -46,-69 -46,-113 0,-44 18,-83 46,-112 29,-29 69,-47 113,-47 11,0 22,1 33,3l0 0 53 -82zm273 -419c-48,-26 -98,-47 -149,-62 -68,-20 -139,-30 -210,-30 -207,0 -394,84 -530,220 -135,135 -219,322 -219,529 0,207 84,394 219,530 136,136 323,220 530,220 207,0 394,-84 530,-220 135,-136 219,-323 219,-530 0,-73 -11,-145 -31,-214 -14,-48 -33,-93 -57,-137l-79 50c18,37 34,75 45,114 18,60 28,123 28,187 0,181 -73,345 -192,463 -118,119 -282,192 -463,192 -181,0 -345,-73 -463,-192 -118,-118 -192,-282 -192,-463 0,-180 74,-344 192,-463 118,-118 282,-191 463,-191 63,0 125,8 184,26 42,12 84,29 123,50l52 -79zm-140 215c-24,-12 -48,-22 -73,-30 -48,-14 -97,-22 -146,-22 -136,0 -260,56 -349,145 -90,89 -145,213 -145,349 0,137 55,260 145,350 89,89 213,144 349,144 136,0 260,-55 349,-144 90,-90 145,-213 145,-350 0,-53 -9,-107 -26,-157 -6,-20 -14,-39 -23,-57l-80 50c5,12 10,24 14,37 14,40 21,83 21,127 0,111 -45,211 -117,283 -73,72 -173,117 -283,117 -110,0 -210,-45 -283,-117 -72,-72 -117,-172 -117,-283 0,-110 45,-210 117,-282 73,-73 173,-117 283,-117 40,0 80,6 118,17 17,5 33,12 49,19l52 -79z"/>
  </g>
 </g>
</svg>
