<?xml version="1.0" encoding="UTF-8"?>
<!DOCTYPE svg PUBLIC "-//W3C//DTD SVG 1.1//EN" "http://www.w3.org/Graphics/SVG/1.1/DTD/svg11.dtd">
<!-- Creator: CorelDRAW X7 -->
<svg xmlns="http://www.w3.org/2000/svg" xml:space="preserve" width="3.44565in" height="3.44565in" version="1.1" style="shape-rendering:geometricPrecision; text-rendering:geometricPrecision; image-rendering:optimizeQuality; fill-rule:evenodd; clip-rule:evenodd"
viewBox="0 0 1861 1861"
 xmlns:xlink="http://www.w3.org/1999/xlink">
 <defs>
  <style type="text/css">
   <![CDATA[
    .str2 {stroke:#003667;stroke-width:60.0125}
    .str1 {stroke:#003667;stroke-width:90.0188}
    .str0 {stroke:#FEFEFE;stroke-width:1.62035}
    .fil8 {fill:none}
    .fil6 {fill:#FEFEFE}
    .fil7 {fill:#E6E7E8}
    .fil0 {fill:#00BA88}
    .fil3 {fill:#185E93}
    .fil1 {fill:#33F0BE}
    .fil2 {fill:#8CFFE0}
    .fil4 {fill:#A8CDD3}
    .fil5 {fill:#BCDBDF}
    .fil9 {fill:#FEFEFE;fill-rule:nonzero}
    .fil10 {fill:#003667;fill-rule:nonzero}
   ]]>
  </style>
     <clipPath id="id0">
      <path d="M1112 783c136,-53 289,15 342,151 53,137 -15,290 -151,342 -137,53 -290,-15 -342,-151 -53,-137 15,-290 151,-342z"/>
     </clipPath>
 </defs>
 <g id="Layer_x0020_1">
  <metadata id="CorelCorpID_0Corel-Layer"/>
  <g id="_291179688">
   <g id="_1138209648">
    <path class="fil0" d="M931 0c514,0 930,416 930,931 0,514 -416,930 -930,930 -515,0 -931,-416 -931,-930 0,-515 416,-931 931,-931z"/>
    <path class="fil1" d="M23 1138l1815 0c14,-61 22,-124 23,-189l-1861 0c1,65 9,128 23,189z"/>
    <path class="fil1" d="M41 655l1039 0 0 -257 0 -386c-49,-8 -99,-12 -149,-12 -419,0 -772,276 -890,655z"/>
    <path class="fil2" d="M1080 398l0 257 -1039 0c-27,87 -41,180 -41,276 0,6 0,12 0,18l1861 0c0,-6 0,-12 0,-18 0,-464 -338,-847 -781,-919l0 386z"/>
   </g>
   <g>
    <path class="fil3" d="M1291 336l-773 0c-45,0 -82,37 -82,83l0 773c0,45 37,82 82,82l773 0c46,0 83,-37 83,-82l0 -773c0,-46 -37,-83 -83,-83z"/>
    <path class="fil4" d="M1319 550l-828 0 0 -131c0,-16 12,-28 27,-28l773 0c16,0 28,12 28,28l0 131z"/>
    <path class="fil4" d="M1319 1192c0,15 -12,27 -28,27l-773 0c-15,0 -27,-12 -27,-27l0 -587 828 0 0 587z"/>
    <path class="fil5" d="M518 1219c-15,0 -27,-12 -27,-27l0 -587 828 0 -801 614z"/>
    <g>
     <g>
      <path class="fil6 str0" d="M1235 446l-110 0c-15,0 -28,12 -28,27 0,16 13,28 28,28l110 0c15,0 27,-12 27,-28 0,-15 -12,-27 -27,-27z"/>
     </g>
    </g>
    <g>
     <g>
      <path class="fil6" d="M850 723l-275 0c-15,0 -27,12 -27,27 0,15 12,28 27,28l275 0c15,0 27,-13 27,-28 0,-15 -12,-27 -27,-27z"/>
     </g>
    </g>
    <g>
     <g>
      <path class="fil6" d="M740 888l-165 0c-15,0 -27,12 -27,27 0,15 12,27 27,27l165 0c15,0 27,-12 27,-27 0,-15 -12,-27 -27,-27z"/>
     </g>
    </g>
    <g>
     <g>
      <path class="fil6" d="M740 1052l-165 0c-15,0 -27,13 -27,28 0,15 12,27 27,27l165 0c15,0 27,-12 27,-27 0,-15 -12,-28 -27,-28z"/>
     </g>
    </g>
    <g>
     <g>
      <circle class="fil3" cx="575" cy="473" r="27"/>
     </g>
    </g>
    <g>
     <g>
      <circle class="fil3" cx="685" cy="473" r="27"/>
     </g>
    </g>
    <g>
     <g>
      <circle class="fil3" cx="795" cy="473" r="27"/>
     </g>
    </g>
    <path class="fil7" d="M1112 783c136,-53 289,15 342,151 53,137 -15,290 -151,342 -137,53 -290,-15 -342,-151 -53,-137 15,-290 151,-342z"/>
    <g style="clip-path:url(#id0)">
     <g>
      <path id="1" class="fil5" d="M1207 1029c137,-52 194,-231 247,-95 53,137 -15,290 -151,342 -137,53 -290,-15 -342,-151 -53,-137 110,-43 246,-96z"/>
     </g>
    </g>
    <path class="fil8 str1" d="M1112 783c136,-53 289,15 342,151 53,137 -15,290 -151,342 -137,53 -290,-15 -342,-151 -53,-137 15,-290 151,-342z"/>
    <path class="fil8 str2" d="M1375 1248l87 226c15,37 -6,81 -46,96l0 0c-40,15 -84,-3 -99,-40l-87 -226 145 -56z"/>
    <g>
     <polygon class="fil9 str0" points="942,1085 1070,999 1085,919 992,982 958,1005 935,971 872,878 856,958 "/>
     <polygon class="fil10" points="945,1051 1073,965 1088,884 995,947 961,971 938,936 875,843 859,924 "/>
    </g>
   </g>
  </g>
 </g>
</svg>
