<?xml version="1.0" encoding="UTF-8"?>
<!DOCTYPE svg PUBLIC "-//W3C//DTD SVG 1.1//EN" "http://www.w3.org/Graphics/SVG/1.1/DTD/svg11.dtd">
<!-- Creator: CorelDRAW X6 -->
<svg xmlns="http://www.w3.org/2000/svg" xml:space="preserve" width="5in" height="5in" version="1.1" style="shape-rendering:geometricPrecision; text-rendering:geometricPrecision; image-rendering:optimizeQuality; fill-rule:evenodd; clip-rule:evenodd"
viewBox="0 0 6202 6202"
 xmlns:xlink="http://www.w3.org/1999/xlink">
 <defs>
  <style type="text/css">
   <![CDATA[
    .fil14 {fill:none}
    .fil3 {fill:#00B081}
    .fil5 {fill:#00BA88}
    .fil0 {fill:#028F69}
    .fil4 {fill:#26E0AE}
    .fil2 {fill:#33F0BE}
    .fil1 {fill:#8CFFE0}
    .fil6 {fill:#D9F7EF}
    .fil7 {fill:#FEFEFE}
    .fil8 {fill:#003667;fill-rule:nonzero}
    .fil13 {fill:#185E93;fill-rule:nonzero}
    .fil11 {fill:#A8CDD3;fill-rule:nonzero}
    .fil9 {fill:#BCDBDF;fill-rule:nonzero}
    .fil10 {fill:white;fill-rule:nonzero}
    .fil15 {fill:url(#id1);fill-rule:nonzero;fill-opacity:0.400000}
    .fil12 {fill:url(#id2);fill-rule:nonzero;fill-opacity:0.400000}
   ]]>
  </style>
   <clipPath id="id0">
    <path d="M3101 0c1713,0 3101,1388 3101,3101 0,1713 -1388,3101 -3101,3101 -1713,0 -3101,-1388 -3101,-3101 0,-1713 1388,-3101 3101,-3101z"/>
   </clipPath>
  <linearGradient id="id1" gradientUnits="userSpaceOnUse" x1="3223.18" y1="4800.59" x2="2560.56" y2="3144.41">
   <stop offset="0" style="stop-color:white"/>
   <stop offset="0.101961" style="stop-color:white"/>
   <stop offset="0.611765" style="stop-color:#6E6B6C"/>
   <stop offset="0.811765" style="stop-color:black"/>
   <stop offset="1" style="stop-color:black"/>
  </linearGradient>
  <linearGradient id="id2" gradientUnits="userSpaceOnUse" xlink:href="#id1" x1="3215.62" y1="124338" x2="2594" y2="122785">
  </linearGradient>
 </defs>
 <g id="Layer_x0020_1">
  <metadata id="CorelCorpID_0Corel-Layer"/>
  <g>
  </g>
  <g style="clip-path:url(#id0)">
   <g>
    <path class="fil0" d="M1499 6185c385,173 1159,194 1631,188 331,-4 1387,-73 1578,-237 -14,-430 71,-1308 -157,-1625 -212,-294 -494,-334 -984,-334 -38,330 -102,435 -459,436 -362,0 -447,-86 -469,-437 -212,5 -423,-17 -617,54 -161,59 -288,170 -377,283 -203,258 -160,1294 -146,1673z"/>
    <path class="fil1" d="M3680 120491c323,180 408,155 736,508 402,432 501,987 465,1623l1496 3c-4,-104 -38,-186 -19,-269 41,-247 -51,-839 -106,-1079 -76,-329 -197,-1086 -371,-1304 -331,-416 -1444,-680 -2195,-682l-6 1198z"/>
    <path class="fil2" d="M-152 121543c291,-52 1365,44 1605,-27 26,-27 110,-205 142,-258 163,-270 367,-466 658,-640 419,-250 920,-273 1426,-127l6 -1198c-762,-48 -2212,-16 -2836,246 -334,140 -491,249 -669,510 -147,215 -317,1157 -333,1495z"/>
    <path class="fil3" d="M1846 2416c70,175 55,546 -17,697 12,16 6,3 26,43l14 31c124,280 232,397 257,457 64,51 117,95 171,147 113,69 197,133 344,186l-3 198c22,351 107,437 469,437 356,0 421,-106 459,-436 -12,-239 -32,-180 167,-281 85,-43 125,-90 189,-125 46,-43 40,-45 82,-75 -89,-9 -230,17 -306,-30 -27,-21 -55,-25 -34,-102 17,-60 -8,-36 59,-56 24,-22 -40,-76 51,-26l-873 -1020c-68,-77 -118,-63 -80,-157 -397,93 -545,90 -956,28l-19 83z"/>
    <path class="fil4" d="M-143 123376c-34,353 195,1453 334,1689 175,296 927,462 1308,600 -14,-380 -57,-1415 146,-1673 89,-113 216,-224 377,-283 194,-71 405,-49 617,-54l3 -198c-147,-53 -231,-117 -344,-186 -211,40 -748,12 -994,12 -329,0 -1123,0 -1452,0l6 93z"/>
    <path class="fil4" d="M3566 123656c490,0 772,40 984,334 228,317 143,1195 157,1625 333,-64 1184,-421 1318,-653 142,-246 350,-1271 315,-1643l-2199 -37c-289,4 -188,-2 -219,-33 -64,34 -104,81 -189,125 -199,101 -179,43 -167,281z"/>
    <path class="fil5" d="M2821 2305c-38,94 12,80 80,157l873 1020c-91,-50 -27,3 -51,26l722 0c6,-59 14,-251 3,-303 -26,-117 -99,-49 -125,-205 -27,-156 -30,-493 47,-606 -4,-5 -9,-11 -11,-15 -2,-4 -8,-10 -11,-15 -3,-4 -7,-10 -10,-15l-90 -198c-93,-184 -332,-463 -533,-519 -62,154 -250,310 -382,411 -179,137 -320,160 -513,263z"/>
    <path class="fil0" d="M1752 2324c47,49 54,44 94,92l19 -83c412,62 560,65 956,-28 193,-102 334,-125 513,-263 132,-101 320,-257 382,-411 201,56 440,335 533,519l90 198c3,5 7,11 10,15 3,5 8,11 11,15 2,4 7,10 11,15 24,-20 41,-34 78,-61 -43,-308 -305,-610 -474,-744 -215,-171 -517,-307 -889,-304 -658,5 -1237,500 -1333,1041z"/>
    <path class="fil1" d="M-213 122638c4,7 9,9 11,22 2,13 8,15 10,22 13,41 10,14 18,66 3,21 1,74 1,97l1565 4c-27,-106 -71,-184 -76,-320 -4,-118 -4,-258 1,-375 12,-268 75,-415 136,-638 -240,71 -1314,-24 -1605,27 -73,227 -58,833 -60,1095z"/>
    <path class="fil0" d="M1453 2036c-61,223 -124,370 -136,638 -5,117 -5,257 -1,375 4,136 49,214 76,320 53,38 47,62 110,119 33,29 103,78 160,104 155,73 298,27 465,51 -26,-60 -133,-177 -257,-457l-14 -31c-20,-39 -14,-27 -26,-43 -183,152 -385,78 -394,-195 -12,-354 -36,-450 128,-591 160,-657 730,-1214 1523,-1219 773,-5 1436,562 1548,1215 139,140 131,97 131,418 0,83 8,204 -11,281 -24,100 -71,106 -121,157l-5 361c140,-75 213,-212 255,-396 36,-637 -63,-1192 -465,-1624 -329,-353 -413,-329 -736,-508 -506,-146 -1007,-123 -1426,127 -291,174 -495,370 -658,640 -32,53 -117,231 -142,258z"/>
    <path class="fil2" d="M4881 122623c-43,184 -115,321 -255,396 -100,184 -164,143 -396,143 -164,0 -366,-2 -531,-16 76,47 217,21 306,30 -42,30 -36,32 -82,75 31,30 -70,36 219,33l2199 37c59,-97 78,-873 17,-963 -18,83 15,165 19,269l-1496 -3z"/>
    <path class="fil6" d="M1563 2327l189 -3c96,-541 675,-1036 1333,-1041 372,-3 674,133 889,304 169,135 431,437 474,744l185 -9c-111,-653 -775,-1221 -1548,-1215 -793,5 -1363,562 -1523,1219z"/>
    <path class="fil2" d="M-143 123376l-6 -93c330,0 1123,0 1452,0 246,0 783,28 994,-12 -54,-52 -107,-96 -171,-147 -168,-23 -310,22 -465,-51 -57,-27 -128,-75 -160,-104 -63,-57 -56,-81 -110,-119l-1565 -4c0,-22 2,-76 -1,-97 -8,-52 -5,-25 -18,-66 -2,-7 -8,-9 -10,-22 -2,-13 -7,-15 -11,-22 2,137 11,661 69,737z"/>
    <path class="fil7" d="M4371 2394c-77,113 -74,450 -47,606 27,156 99,89 125,205 12,52 3,244 -3,303l-722 0c-67,20 -42,-5 -59,56 -22,78 7,81 34,102 165,14 367,16 531,16 232,0 296,41 396,-143l5 -361c50,-51 97,-56 121,-157 19,-77 11,-198 11,-281 0,-321 8,-277 -131,-418l-185 9c-36,27 -54,41 -78,61z"/>
    <path class="fil7" d="M1829 3113c71,-150 87,-522 17,-697 -40,-48 -47,-43 -94,-92l-189 3c-164,141 -140,237 -128,591 9,274 211,348 394,195z"/>
    <path class="fil0" d="M3490 3181l-779 0c49,514 722,531 779,0z"/>
    <path class="fil0" d="M2456 2539c-241,92 -88,381 108,297 173,-74 82,-370 -108,-297z"/>
    <path class="fil0" d="M3664 2538c-221,72 -114,365 92,302 192,-59 101,-365 -92,-302z"/>
    <g id="_1403825648">
     <g>
      <polygon class="fil8" points="4078,121139 4887,124126 3437,123850 3421,122329 "/>
     </g>
     <g>
      <polygon class="fil8" points="1989,121308 1351,124063 2817,124938 2722,121675 "/>
     </g>
     <g>
      <path class="fil9" d="M2592 122893c-11,189 -130,579 -307,709 189,331 615,686 804,709 -12,-721 0,-1419 0,-1419l-497 0z"/>
      <path class="fil10" d="M3574 122893c12,189 130,579 307,709 -190,331 -615,686 -804,709 12,-721 0,-1419 0,-1419l497 0z"/>
     </g>
     <path class="fil9" d="M5196 124756l0 -23c-106,-708 -293,-732 -1350,-1315l-807 525 -584 -495c-1047,462 -1338,601 -1433,1403l-118 907 4394 0 -102 -1001z"/>
     <polygon class="fil10" points="3689,123278 4034,123522 3693,124163 3206,123629 "/>
     <g>
      <path class="fil11" d="M2445 123415c-1047,462 -1303,570 -1397,1372l-144 970 2177 0 0 -1842 -42 27 -594 -527z"/>
     </g>
     <path class="fil10" d="M2609 123402c200,157 322,299 521,278 198,-21 462,-229 528,-371 54,59 257,200 257,200l-373 475 -435 673 -485 -748 -372 -379 360 -127z"/>
     <polygon class="fil10" points="2477,123267 2215,123519 2495,124202 3027,123638 "/>
     <polygon class="fil12" points="3607,122956 2520,124227 2202,123528 2503,123232 2601,122896 "/>
     <g>
      <g>
       <path class="fil9" d="M2225 121040c-106,197 -52,456 -39,721 -66,17 -104,64 -104,192 0,189 85,487 217,529 17,46 36,91 56,134 1,3 3,5 4,7 46,92 97,176 152,250 27,36 54,69 83,100 147,159 318,256 502,272l0 -2705c-309,2 -700,182 -872,500z"/>
       <path class="fil10" d="M3088 120540l0 2705c184,-16 355,-113 502,-272 29,-31 56,-65 83,-100 55,-74 107,-158 152,-250 1,-2 3,-4 4,-7 20,-43 39,-87 56,-134 133,-42 217,-340 217,-529 0,-127 -39,-174 -104,-192 14,-265 67,-525 -39,-721 -172,-317 -563,-498 -871,-500z"/>
      </g>
      <g>
       <path class="fil8" d="M3087 120511c-213,-71 -676,56 -884,320 -307,390 -308,1063 -308,1063l390 -53c0,0 114,-481 540,-646 321,-125 262,-683 262,-683z"/>
      </g>
      <g>
       <path class="fil13" d="M2660 120925c71,355 764,324 1000,442 237,118 232,461 232,461l201 -59c0,0 202,-583 -236,-972 -425,-378 -940,-321 -1129,-274 -189,47 -69,401 -69,401z"/>
      </g>
     </g>
     <g>
      <g>
       <path class="fil8" d="M4316 122037c-79,-61 -105,0 -105,0 -42,75 -285,414 -812,566 -36,-40 -106,-68 -188,-68 -118,0 -214,57 -214,127 0,70 96,127 214,127 118,0 213,-56 214,-126 183,-55 643,-226 891,-625z"/>
       <path class="fil10" d="M4445 121802c-22,-59 -40,-110 -64,-145 10,-68 16,-138 16,-209 0,-737 -589,-1335 -1316,-1335 -727,0 -1316,598 -1316,1335 0,73 7,145 18,215 -23,35 -41,85 -63,143 -31,84 -11,487 27,542 70,101 260,180 381,195 15,16 36,26 59,24 40,-4 69,-38 66,-76l-66 -726c-4,-39 -39,-67 -79,-63 -18,2 -33,10 -45,22 -6,-1 -13,-2 -20,-2 -39,-3 -99,-46 -122,-93 -9,-59 -14,-119 -14,-180 0,-658 526,-1110 1174,-1110 648,0 1174,452 1174,1110 0,62 -5,122 -14,182 -25,45 -82,85 -119,87 -7,1 -14,1 -20,2 -12,-12 -27,-20 -45,-22 -40,-3 -75,25 -79,63l-66 726c-4,38 26,73 66,76 24,2 45,-8 60,-24 120,-15 311,-94 381,-195 38,-55 58,-459 27,-542z"/>
      </g>
     </g>
    </g>
    <g id="_1403828464">
     <polyline class="fil14" points="-547,2183 3600,2183 3600,-539 "/>
     <rect class="fil5" x="-547" y="-539" width="7122" height="7122"/>
     <rect class="fil2" x="-547" y="3161" width="7122" height="629"/>
     <polygon class="fil2" points="-547,2183 3600,2183 3600,1326 3600,-539 -547,-539 -547,1326 "/>
     <path class="fil1" d="M3600 1326l0 857 -4147 0 0 209 0 769 90 0 6748 0 283 0 0 -1835 0 -1151 0 -714 -2975 0 0 1865zm-4056 1765c0,23 0,45 -1,68l1 -68z"/>
    </g>
    <g id="_1403817040">
     <g>
      <polygon class="fil8" points="4142,1390 5005,4574 3459,4280 3442,2659 "/>
     </g>
     <g>
      <polygon class="fil8" points="1916,1570 1235,4508 2798,5440 2697,1962 "/>
     </g>
     <g>
      <path class="fil9" d="M2558 3260c-12,201 -138,617 -327,756 201,353 655,731 857,756 -12,-769 0,-1512 0,-1512l-529 0z"/>
      <path class="fil10" d="M3605 3260c13,201 139,617 328,756 -202,353 -656,731 -857,756 12,-769 0,-1512 0,-1512l529 0z"/>
     </g>
     <path class="fil9" d="M5334 5246l0 -25c-113,-754 -312,-780 -1439,-1402l-861 559 -623 -528c-1116,492 -1427,641 -1527,1496l-126 966 4684 0 -109 -1067z"/>
     <polygon class="fil10" points="3728,3670 4095,3931 3732,4614 3213,4044 "/>
     <g>
      <path class="fil11" d="M2402 3817c-1116,492 -1388,607 -1489,1462l-154 1034 2320 0 0 -1963 -45 29 -633 -562z"/>
     </g>
     <path class="fil10" d="M2576 3803c213,167 343,319 555,296 211,-22 493,-244 562,-395 58,63 274,213 274,213l-398 506 -464 718 -517 -798 -397 -404 384 -136z"/>
     <polygon class="fil10" points="2435,3658 2156,3927 2455,4655 3022,4054 "/>
     <polygon class="fil15" points="3641,3327 2482,4682 2143,3937 2464,3621 2568,3263 "/>
     <g>
      <g>
       <path class="fil9" d="M2168 1284c-113,210 -56,486 -41,769 -70,19 -111,69 -111,204 0,201 90,519 231,564 18,49 38,96 60,142 1,3 3,5 5,8 49,98 103,187 162,267 29,38 58,74 88,107 156,170 339,273 535,290l0 -2884c-329,2 -746,194 -929,533z"/>
       <path class="fil10" d="M3087 751l0 2884c196,-17 378,-120 535,-290 30,-33 60,-69 88,-107 59,-79 114,-168 162,-267 1,-2 3,-5 4,-8 22,-46 42,-93 60,-142 141,-45 232,-363 232,-564 0,-135 -41,-186 -111,-204 14,-283 72,-559 -41,-769 -183,-338 -600,-531 -929,-533z"/>
      </g>
      <g>
       <path class="fil8" d="M3086 721c-227,-76 -721,60 -943,341 -328,416 -328,1133 -328,1133l416 -57c0,0 122,-513 575,-689 342,-133 279,-728 279,-728z"/>
      </g>
      <g>
       <path class="fil13" d="M2631 1163c76,378 814,345 1066,471 252,126 248,491 248,491l215 -63c0,0 216,-621 -251,-1036 -454,-403 -1002,-342 -1203,-292 -202,50 -74,428 -74,428z"/>
      </g>
     </g>
     <g>
      <g>
       <path class="fil8" d="M4396 2348c-84,-65 -112,0 -112,0 -44,80 -303,442 -865,603 -38,-43 -113,-72 -201,-72 -126,0 -228,60 -228,135 0,75 102,135 228,135 125,0 227,-60 228,-134 195,-58 685,-241 950,-667z"/>
       <path class="fil10" d="M4533 2097c-23,-63 -43,-117 -68,-155 11,-72 17,-147 17,-222 0,-786 -628,-1423 -1403,-1423 -775,0 -1403,637 -1403,1423 0,78 7,154 19,229 -25,37 -44,91 -67,152 -33,89 -12,519 29,578 74,108 278,192 406,208 16,17 38,28 63,25 43,-4 74,-41 70,-81l-70 -774c-4,-41 -41,-71 -84,-67 -19,2 -36,11 -48,23 -7,-1 -13,-2 -21,-2 -41,-3 -106,-49 -130,-99 -10,-63 -15,-127 -15,-192 0,-701 560,-1183 1251,-1183 691,0 1251,482 1251,1183 0,66 -5,130 -15,194 -26,48 -87,90 -127,93 -8,1 -15,1 -21,2 -12,-12 -29,-22 -48,-23 -42,-4 -80,26 -84,67l-70 774c-4,41 27,77 70,81 25,2 48,-9 64,-25 128,-16 332,-100 406,-208 40,-58 62,-489 29,-578z"/>
      </g>
     </g>
    </g>
   </g>
  </g>
  <path class="fil14" d="M3101 0c1713,0 3101,1388 3101,3101 0,1713 -1388,3101 -3101,3101 -1713,0 -3101,-1388 -3101,-3101 0,-1713 1388,-3101 3101,-3101z"/>
 </g>
</svg>
