<?xml version="1.0" encoding="UTF-8"?>
<!DOCTYPE svg PUBLIC "-//W3C//DTD SVG 1.1//EN" "http://www.w3.org/Graphics/SVG/1.1/DTD/svg11.dtd">
<!-- Creator: CorelDRAW X7 -->
<svg xmlns="http://www.w3.org/2000/svg" xml:space="preserve" width="3.44565in" height="3.44565in" version="1.1" style="shape-rendering:geometricPrecision; text-rendering:geometricPrecision; image-rendering:optimizeQuality; fill-rule:evenodd; clip-rule:evenodd"
viewBox="0 0 1861 1861"
 xmlns:xlink="http://www.w3.org/1999/xlink">
 <defs>
  <style type="text/css">
   <![CDATA[
    .str0 {stroke:#FEFEFE;stroke-width:60.0125}
    .str1 {stroke:#003667;stroke-width:15.0021}
    .fil3 {fill:none}
    .fil6 {fill:#003667}
    .fil0 {fill:#00BA88}
    .fil5 {fill:#185E93}
    .fil1 {fill:#33F0BE}
    .fil2 {fill:#8CFFE0}
    .fil4 {fill:#FEFEFE;fill-rule:nonzero}
   ]]>
  </style>
   <clipPath id="id0">
    <path d="M910 633l5 0 227 0 0 -58c0,-114 -81,-206 -194,-206l-48 0c-114,0 -194,92 -194,206l0 58 204 0zm312 0l62 0 3 377c1,174 -191,286 -372,368l-2 1 -3 -1c-181,-82 -373,-194 -372,-368l3 -377 85 0 0 -62c0,-153 112,-278 265,-278l66 0c152,0 265,125 265,278l0 62zm-309 321c34,0 61,28 61,62 0,25 -14,46 -35,56l0 92 -53 0 0 -92c-21,-10 -35,-31 -35,-56 0,-34 28,-62 62,-62z"/>
   </clipPath>
 </defs>
 <g id="Layer_x0020_1">
  <metadata id="CorelCorpID_0Corel-Layer"/>
  <g id="_1138209648">
   <path class="fil0" d="M931 0c514,0 930,416 930,931 0,514 -416,930 -930,930 -515,0 -931,-416 -931,-930 0,-515 416,-931 931,-931z"/>
   <path class="fil1" d="M23 1138l1815 0c14,-61 22,-124 23,-189l-1861 0c1,65 9,128 23,189z"/>
   <path class="fil1" d="M41 655l1039 0 0 -257 0 -386c-49,-8 -99,-12 -149,-12 -419,0 -772,276 -890,655z"/>
   <path class="fil2" d="M1080 398l0 257 -1039 0c-27,87 -41,180 -41,276 0,6 0,12 0,18l1861 0c0,-6 0,-12 0,-18 0,-464 -338,-847 -781,-919l0 386z"/>
  </g>
  <line class="fil3 str0" x1="319" y1="829" x2="654" y2= "829" />
  <polyline class="fil3 str0" points="286,572 432,572 486,723 654,723 "/>
  <path class="fil4" d="M1501 1160c22,0 42,8 57,23 14,15 23,35 23,57 0,22 -9,42 -23,56 -15,15 -35,24 -57,24 -22,0 -42,-9 -57,-24 -14,-14 -23,-34 -23,-56 0,-22 9,-42 23,-57 15,-15 35,-23 57,-23zm26 54c-7,-7 -16,-11 -26,-11 -10,0 -19,4 -26,11 -7,6 -11,16 -11,26 0,10 4,19 11,26 7,7 16,11 26,11 10,0 19,-4 26,-11 7,-7 11,-16 11,-26 0,-10 -4,-20 -11,-26z"/>
  <line class="fil3 str0" x1="1268" y1="718" x2="1603" y2= "718" />
  <polygon class="fil4" points="1093,1153 1303,1153 1314,1153 1321,1162 1369,1228 1442,1228 1442,1271 1358,1271 1347,1271 1340,1262 1292,1196 1093,1196 "/>
  <polyline class="fil3 str0" points="310,1092 432,1092 486,1242 763,1242 "/>
  <line class="fil3 str0" x1="402" y1="956" x2="737" y2= "956" />
  <path class="fil4" d="M252 1016c22,0 42,9 57,24 14,14 23,34 23,56 0,23 -9,43 -23,57 -15,15 -35,24 -57,24 -22,0 -42,-9 -57,-24 -14,-14 -23,-34 -23,-57 0,-22 9,-42 23,-56 15,-15 35,-24 57,-24zm26 54c-7,-6 -16,-10 -26,-10 -10,0 -19,4 -26,10 -7,7 -11,16 -11,26 0,11 4,20 11,27 7,6 16,10 26,10 10,0 19,-4 26,-10 7,-7 11,-16 11,-27 0,-10 -4,-19 -11,-26z"/>
  <polyline class="fil3 str0" points="1237,854 1447,854 1492,965 1575,965 "/>
  <path class="fil4" d="M1635 888c23,0 43,9 57,23 15,15 24,35 24,57 0,22 -9,42 -24,57 -14,14 -34,23 -57,23 -22,0 -42,-9 -56,-23 -15,-15 -24,-35 -24,-57 0,-22 9,-42 24,-57 14,-14 34,-23 56,-23zm27 54c-7,-7 -16,-11 -27,-11 -10,0 -19,4 -26,11 -6,7 -10,16 -10,26 0,10 4,19 10,26 7,7 16,11 26,11 11,0 20,-4 27,-11 6,-7 10,-16 10,-26 0,-10 -4,-19 -10,-26z"/>
  <line class="fil3 str0" x1="1145" y1="1061" x2="1480" y2= "1061" />
  <path class="fil4" d="M226 501c22,0 42,9 56,23 15,15 24,35 24,57 0,22 -9,42 -24,57 -14,14 -34,23 -56,23 -23,0 -43,-9 -57,-23 -15,-15 -24,-35 -24,-57 0,-22 9,-42 24,-57 14,-14 34,-23 57,-23zm26 54c-7,-7 -16,-11 -26,-11 -11,0 -20,4 -27,11 -6,7 -10,16 -10,26 0,10 4,20 10,26 7,7 16,11 27,11 10,0 19,-4 26,-11 6,-6 11,-16 11,-26 0,-10 -5,-19 -11,-26z"/>
  <polygon class="fil4" points="934,1240 934,1486 891,1486 891,1240 "/>
  <polygon class="fil4" points="807,1222 807,1432 807,1443 798,1450 732,1498 732,1571 688,1571 688,1487 688,1476 697,1470 764,1421 764,1222 "/>
  <polygon class="fil4" points="1029,1151 1029,1362 1029,1373 1038,1379 1105,1428 1105,1500 1148,1500 1148,1417 1148,1406 1139,1399 1073,1351 1073,1151 "/>
  <path class="fil4" d="M1118 1465c22,0 43,9 57,24 15,14 24,35 24,57 0,22 -9,42 -24,56 -14,15 -35,24 -57,24 -22,0 -42,-9 -56,-24 -15,-14 -24,-34 -24,-56 0,-22 9,-43 24,-57 14,-15 34,-24 56,-24zm26 55c-6,-7 -16,-11 -26,-11 -10,0 -19,4 -26,11 -6,6 -11,15 -11,26 0,10 5,19 11,26 7,6 16,11 26,11 10,0 20,-5 26,-11 7,-7 11,-16 11,-26 0,-11 -4,-20 -11,-26z"/>
  <path class="fil4" d="M904 1475c22,0 42,9 57,23 14,15 23,35 23,57 0,22 -9,42 -23,57 -15,14 -35,23 -57,23 -22,0 -42,-9 -57,-23 -14,-15 -23,-35 -23,-57 0,-22 9,-42 23,-57 15,-14 35,-23 57,-23zm26 54c-7,-7 -16,-11 -26,-11 -10,0 -20,4 -26,11 -7,7 -11,16 -11,26 0,10 4,20 11,26 6,7 16,11 26,11 10,0 19,-4 26,-11 7,-6 11,-16 11,-26 0,-10 -4,-19 -11,-26z"/>
  <path class="fil5" d="M910 633l5 0 227 0 0 -58c0,-114 -81,-206 -194,-206l-48 0c-114,0 -194,92 -194,206l0 58 204 0zm312 0l62 0 3 377c1,174 -191,286 -372,368l-2 1 -3 -1c-181,-82 -373,-194 -372,-368l3 -377 85 0 0 -62c0,-153 112,-278 265,-278l66 0c152,0 265,125 265,278l0 62zm-309 321c34,0 61,28 61,62 0,25 -14,46 -35,56l0 92 -53 0 0 -92c-21,-10 -35,-31 -35,-56 0,-34 28,-62 62,-62z"/>
  <g style="clip-path:url(#id0)">
   <g id="_291184248">
    <ellipse class="fil6" cx="1506" cy="1483" rx="747" ry="827"/>
    <path class="fil6" d="M788 262l402 260c35,22 43,57 88,22 87,-68 -109,-141 -86,-204 354,-974 -71,-351 -321,-112 -29,28 -45,45 -83,34z"/>
   </g>
  </g>
  <path class="fil3" d="M910 633l5 0 227 0 0 -58c0,-114 -81,-206 -194,-206l-48 0c-114,0 -194,92 -194,206l0 58 204 0zm312 0l62 0 3 377c1,174 -191,286 -372,368l-2 1 -3 -1c-181,-82 -373,-194 -372,-368l3 -377 85 0 0 -62c0,-153 112,-278 265,-278l66 0c152,0 265,125 265,278l0 62zm-309 321c34,0 61,28 61,62 0,25 -14,46 -35,56l0 92 -53 0 0 -92c-21,-10 -35,-31 -35,-56 0,-34 28,-62 62,-62z"/>
  <path class="fil5 str1" d="M1234 683l2 304c2,150 -165,246 -322,317l-1 1 -2 -1c-157,-71 -324,-167 -322,-317l3 -304c214,0 428,0 642,0zm-321 255c29,0 53,24 53,53 0,22 -13,40 -31,49l0 80 -45 0 0 -80c-18,-9 -31,-27 -31,-49 0,-29 24,-53 54,-53z"/>
  <circle class="fil6" cx="658" cy="740" r="17"/>
  <circle class="fil6" cx="1166" cy="740" r="17"/>
  <circle class="fil6" cx="910" cy="740" r="17"/>
  <circle class="fil6" cx="658" cy="1055" r="17"/>
  <circle class="fil6" cx="658" cy="893" r="17"/>
  <circle class="fil6" cx="1167" cy="1055" r="17"/>
  <circle class="fil6" cx="1167" cy="893" r="17"/>
  <circle class="fil6" cx="910" cy="1240" r="17"/>
  <circle class="fil6" cx="784" cy="740" r="17"/>
  <circle class="fil6" cx="1042" cy="740" r="17"/>
  <circle class="fil6" cx="784" cy="1158" r="17"/>
  <circle class="fil6" cx="1042" cy="1158" r="17"/>
 </g>
</svg>
